<mxfile host="app.diagrams.net" modified="2021-11-23T05:23:22.019Z" agent="5.0 (Windows NT 10.0; Win64; x64) AppleWebKit/537.36 (KHTML, like Gecko) Chrome/96.0.4664.45 Safari/537.36" etag="YytNOC4r9ESYp4ppbh0M" version="15.8.2" type="github">
  <diagram name="Page-1" id="3e8102d1-ef87-2e61-34e1-82d9a586fe2e">
    <mxGraphModel dx="1422" dy="737" grid="1" gridSize="10" guides="1" tooltips="1" connect="1" arrows="1" fold="1" page="1" pageScale="1" pageWidth="1100" pageHeight="850" background="none" math="0" shadow="0">
      <root>
        <mxCell id="0" />
        <mxCell id="1" parent="0" />
        <mxCell id="70666756c84bb93c-1" value="" style="ellipse;whiteSpace=wrap;html=1;rounded=0;shadow=0;comic=0;strokeWidth=1;fontFamily=Verdana;fontSize=14;strokeColor=none;fillColor=#0069D1;" parent="1" vertex="1">
          <mxGeometry x="280" y="110" width="500" height="500" as="geometry" />
        </mxCell>
        <mxCell id="70666756c84bb93c-2" value="HSEC&lt;br&gt;A.I." style="ellipse;whiteSpace=wrap;html=1;rounded=0;shadow=0;comic=0;strokeWidth=1;fontFamily=Verdana;fontSize=22;strokeColor=none;fillColor=#ffffff;fontColor=#0069D1;fontStyle=1" parent="1" vertex="1">
          <mxGeometry x="400" y="230" width="260" height="260" as="geometry" />
        </mxCell>
        <mxCell id="70666756c84bb93c-5" value="Community" style="shadow=0;dashed=0;html=1;strokeColor=none;fillColor=#ffffff;labelPosition=center;verticalLabelPosition=bottom;verticalAlign=top;shape=mxgraph.office.users.users;rounded=0;comic=0;fontFamily=Verdana;fontSize=14;fontColor=#FFFFFF;" parent="1" vertex="1">
          <mxGeometry x="350" y="440" width="46" height="50" as="geometry" />
        </mxCell>
        <mxCell id="70666756c84bb93c-6" value="Customer&lt;div&gt;Service&lt;/div&gt;" style="shadow=0;dashed=0;html=1;strokeColor=none;fillColor=#ffffff;labelPosition=center;verticalLabelPosition=bottom;verticalAlign=top;shape=mxgraph.office.users.call_center_agent;rounded=0;comic=0;fontFamily=Verdana;fontSize=14;fontColor=#FFFFFF;" parent="1" vertex="1">
          <mxGeometry x="676" y="413" width="46" height="55" as="geometry" />
        </mxCell>
        <mxCell id="70666756c84bb93c-7" value="Response&lt;div&gt;Group&lt;/div&gt;" style="shadow=0;dashed=0;html=1;strokeColor=none;fillColor=#ffffff;labelPosition=center;verticalLabelPosition=bottom;verticalAlign=top;shape=mxgraph.office.users.response_group;rounded=0;comic=0;fontFamily=Verdana;fontSize=14;fontColor=#FFFFFF;" parent="1" vertex="1">
          <mxGeometry x="350" y="203" width="58" height="54" as="geometry" />
        </mxCell>
        <mxCell id="70666756c84bb93c-8" value="Central&lt;div&gt;Management&lt;/div&gt;&lt;div&gt;Service&lt;/div&gt;" style="shadow=0;dashed=0;html=1;strokeColor=none;fillColor=#ffffff;labelPosition=center;verticalLabelPosition=bottom;verticalAlign=top;shape=mxgraph.office.services.central_management_service;rounded=0;comic=0;fontFamily=Verdana;fontSize=14;fontColor=#FFFFFF;" parent="1" vertex="1">
          <mxGeometry x="317" y="313" width="51" height="54" as="geometry" />
        </mxCell>
        <mxCell id="70666756c84bb93c-9" value="Digital&lt;div&gt;Development&lt;/div&gt;" style="shadow=0;dashed=0;html=1;strokeColor=none;fillColor=#ffffff;labelPosition=center;verticalLabelPosition=bottom;verticalAlign=top;shape=mxgraph.office.servers.on_premises_server;rounded=0;comic=0;fontFamily=Verdana;fontSize=14;fontColor=#FFFFFF;" parent="1" vertex="1">
          <mxGeometry x="700" y="282" width="44" height="58" as="geometry" />
        </mxCell>
        <mxCell id="70666756c84bb93c-10" value="&lt;div&gt;Security&lt;br&gt;Certificates&lt;/div&gt;" style="shadow=0;dashed=0;html=1;strokeColor=none;fillColor=#ffffff;labelPosition=center;verticalLabelPosition=bottom;verticalAlign=top;shape=mxgraph.office.security.token_service;rounded=0;comic=0;fontFamily=Verdana;fontSize=14;fontColor=#FFFFFF;" parent="1" vertex="1">
          <mxGeometry x="450" y="492" width="60" height="56" as="geometry" />
        </mxCell>
        <mxCell id="70666756c84bb93c-11" value="Infrastructure" style="shadow=0;dashed=0;html=1;strokeColor=none;fillColor=#ffffff;labelPosition=center;verticalLabelPosition=bottom;verticalAlign=top;shape=mxgraph.office.concepts.on_premises;rounded=0;comic=0;fontFamily=Verdana;fontSize=14;fontColor=#FFFFFF;" parent="1" vertex="1">
          <mxGeometry x="593" y="490" width="34" height="55" as="geometry" />
        </mxCell>
        <mxCell id="70666756c84bb93c-12" value="Global&lt;div&gt;Partnerships&lt;/div&gt;" style="shadow=0;dashed=0;html=1;strokeColor=none;fillColor=#ffffff;labelPosition=center;verticalLabelPosition=bottom;verticalAlign=top;shape=mxgraph.office.concepts.globe_internet;rounded=0;comic=0;fontFamily=Verdana;fontSize=14;fontColor=#FFFFFF;" parent="1" vertex="1">
          <mxGeometry x="441" y="135" width="49" height="49" as="geometry" />
        </mxCell>
        <mxCell id="70666756c84bb93c-13" value="Environmental&lt;div&gt;Awareness&lt;/div&gt;" style="shadow=0;dashed=0;html=1;strokeColor=none;shape=mxgraph.mscae.general.continuous_cycle;fillColor=#ffffff;rounded=0;comic=0;fontFamily=Verdana;fontSize=14;fontColor=#FFFFFF;verticalAlign=top;labelPosition=center;verticalLabelPosition=bottom;align=center;" parent="1" vertex="1">
          <mxGeometry x="550" y="135" width="48" height="50" as="geometry" />
        </mxCell>
        <mxCell id="70666756c84bb93c-15" value="Finance" style="shape=mxgraph.signs.travel.euro;html=1;fillColor=#ffffff;strokeColor=none;verticalLabelPosition=bottom;verticalAlign=top;align=center;rounded=0;shadow=0;dashed=0;comic=0;fontFamily=Verdana;fontSize=14;fontColor=#FFFFFF;" parent="1" vertex="1">
          <mxGeometry x="650" y="189" width="45" height="51" as="geometry" />
        </mxCell>
        <mxCell id="WLdkaR_j6p1JXs1nKUVu-13" value="" style="ellipse;whiteSpace=wrap;html=1;rounded=0;shadow=0;comic=0;strokeWidth=1;fontFamily=Verdana;fontSize=14;strokeColor=none;fillColor=#FF3399;" vertex="1" parent="1">
          <mxGeometry x="280" y="780" width="500" height="500" as="geometry" />
        </mxCell>
        <mxCell id="WLdkaR_j6p1JXs1nKUVu-14" value="A.I.&lt;br&gt;HDA" style="ellipse;whiteSpace=wrap;html=1;rounded=0;shadow=0;comic=0;strokeWidth=1;fontFamily=Verdana;fontSize=22;strokeColor=none;fillColor=#ffffff;fontColor=#FF3399;fontStyle=1" vertex="1" parent="1">
          <mxGeometry x="400" y="900" width="260" height="260" as="geometry" />
        </mxCell>
        <mxCell id="WLdkaR_j6p1JXs1nKUVu-15" value="Community" style="shadow=0;dashed=0;html=1;strokeColor=none;fillColor=#ffffff;labelPosition=center;verticalLabelPosition=bottom;verticalAlign=top;shape=mxgraph.office.users.users;rounded=0;comic=0;fontFamily=Verdana;fontSize=14;fontColor=#FFFFFF;" vertex="1" parent="1">
          <mxGeometry x="350" y="1110" width="46" height="50" as="geometry" />
        </mxCell>
        <mxCell id="WLdkaR_j6p1JXs1nKUVu-16" value="Customer&lt;div&gt;Service&lt;/div&gt;" style="shadow=0;dashed=0;html=1;strokeColor=none;fillColor=#ffffff;labelPosition=center;verticalLabelPosition=bottom;verticalAlign=top;shape=mxgraph.office.users.call_center_agent;rounded=0;comic=0;fontFamily=Verdana;fontSize=14;fontColor=#FFFFFF;" vertex="1" parent="1">
          <mxGeometry x="676" y="1083" width="46" height="55" as="geometry" />
        </mxCell>
        <mxCell id="WLdkaR_j6p1JXs1nKUVu-17" value="Response&lt;div&gt;Group&lt;/div&gt;" style="shadow=0;dashed=0;html=1;strokeColor=none;fillColor=#ffffff;labelPosition=center;verticalLabelPosition=bottom;verticalAlign=top;shape=mxgraph.office.users.response_group;rounded=0;comic=0;fontFamily=Verdana;fontSize=14;fontColor=#FFFFFF;" vertex="1" parent="1">
          <mxGeometry x="350" y="873" width="58" height="54" as="geometry" />
        </mxCell>
        <mxCell id="WLdkaR_j6p1JXs1nKUVu-18" value="Central&lt;div&gt;Management&lt;/div&gt;&lt;div&gt;Service&lt;/div&gt;" style="shadow=0;dashed=0;html=1;strokeColor=none;fillColor=#ffffff;labelPosition=center;verticalLabelPosition=bottom;verticalAlign=top;shape=mxgraph.office.services.central_management_service;rounded=0;comic=0;fontFamily=Verdana;fontSize=14;fontColor=#FFFFFF;" vertex="1" parent="1">
          <mxGeometry x="317" y="983" width="51" height="54" as="geometry" />
        </mxCell>
        <mxCell id="WLdkaR_j6p1JXs1nKUVu-19" value="Digital&lt;div&gt;Development&lt;/div&gt;" style="shadow=0;dashed=0;html=1;strokeColor=none;fillColor=#ffffff;labelPosition=center;verticalLabelPosition=bottom;verticalAlign=top;shape=mxgraph.office.servers.on_premises_server;rounded=0;comic=0;fontFamily=Verdana;fontSize=14;fontColor=#FFFFFF;" vertex="1" parent="1">
          <mxGeometry x="700" y="952" width="44" height="58" as="geometry" />
        </mxCell>
        <mxCell id="WLdkaR_j6p1JXs1nKUVu-20" value="Technology&lt;div&gt;Certificates&lt;/div&gt;" style="shadow=0;dashed=0;html=1;strokeColor=none;fillColor=#ffffff;labelPosition=center;verticalLabelPosition=bottom;verticalAlign=top;shape=mxgraph.office.security.token_service;rounded=0;comic=0;fontFamily=Verdana;fontSize=14;fontColor=#FFFFFF;" vertex="1" parent="1">
          <mxGeometry x="450" y="1162" width="60" height="56" as="geometry" />
        </mxCell>
        <mxCell id="WLdkaR_j6p1JXs1nKUVu-21" value="Infrastructure" style="shadow=0;dashed=0;html=1;strokeColor=none;fillColor=#ffffff;labelPosition=center;verticalLabelPosition=bottom;verticalAlign=top;shape=mxgraph.office.concepts.on_premises;rounded=0;comic=0;fontFamily=Verdana;fontSize=14;fontColor=#FFFFFF;" vertex="1" parent="1">
          <mxGeometry x="593" y="1160" width="34" height="55" as="geometry" />
        </mxCell>
        <mxCell id="WLdkaR_j6p1JXs1nKUVu-22" value="Global&lt;div&gt;Partnerships&lt;/div&gt;" style="shadow=0;dashed=0;html=1;strokeColor=none;fillColor=#ffffff;labelPosition=center;verticalLabelPosition=bottom;verticalAlign=top;shape=mxgraph.office.concepts.globe_internet;rounded=0;comic=0;fontFamily=Verdana;fontSize=14;fontColor=#FFFFFF;" vertex="1" parent="1">
          <mxGeometry x="441" y="810" width="49" height="49" as="geometry" />
        </mxCell>
        <mxCell id="WLdkaR_j6p1JXs1nKUVu-23" value="Environmental&lt;div&gt;Awareness&lt;/div&gt;" style="shadow=0;dashed=0;html=1;strokeColor=none;shape=mxgraph.mscae.general.continuous_cycle;fillColor=#ffffff;rounded=0;comic=0;fontFamily=Verdana;fontSize=14;fontColor=#FFFFFF;verticalAlign=top;labelPosition=center;verticalLabelPosition=bottom;align=center;" vertex="1" parent="1">
          <mxGeometry x="550" y="805" width="48" height="50" as="geometry" />
        </mxCell>
        <mxCell id="WLdkaR_j6p1JXs1nKUVu-24" value="Finance" style="shape=mxgraph.signs.travel.euro;html=1;fillColor=#ffffff;strokeColor=none;verticalLabelPosition=bottom;verticalAlign=top;align=center;rounded=0;shadow=0;dashed=0;comic=0;fontFamily=Verdana;fontSize=14;fontColor=#FFFFFF;" vertex="1" parent="1">
          <mxGeometry x="637" y="859" width="45" height="51" as="geometry" />
        </mxCell>
        <mxCell id="WLdkaR_j6p1JXs1nKUVu-28" value="" style="outlineConnect=0;dashed=0;verticalLabelPosition=bottom;verticalAlign=top;align=center;html=1;shape=mxgraph.aws3.memcached;fillColor=#2E73B8;gradientColor=none;labelBackgroundColor=none;fontColor=none;noLabel=1;" vertex="1" parent="1">
          <mxGeometry x="130" y="570" width="60" height="63" as="geometry" />
        </mxCell>
        <mxCell id="WLdkaR_j6p1JXs1nKUVu-32" value="" style="verticalLabelPosition=bottom;verticalAlign=top;html=1;shape=mxgraph.basic.pie;fillColor=#fff2cc;strokeColor=#d6b656;startAngle=0.75;endAngle=0;labelBackgroundColor=none;opacity=50;" vertex="1" parent="1">
          <mxGeometry x="220" y="50" width="620" height="620" as="geometry" />
        </mxCell>
        <mxCell id="WLdkaR_j6p1JXs1nKUVu-37" value="" style="verticalLabelPosition=bottom;verticalAlign=top;html=1;shape=mxgraph.basic.pie;fillColor=#f8cecc;strokeColor=#b85450;startAngle=0.75;endAngle=0;labelBackgroundColor=none;opacity=50;rotation=90;" vertex="1" parent="1">
          <mxGeometry x="220" y="50" width="620" height="620" as="geometry" />
        </mxCell>
        <mxCell id="WLdkaR_j6p1JXs1nKUVu-38" value="" style="verticalLabelPosition=bottom;verticalAlign=top;html=1;shape=mxgraph.basic.pie;fillColor=#dae8fc;strokeColor=#6c8ebf;startAngle=0.75;endAngle=0;labelBackgroundColor=none;opacity=50;rotation=-90;" vertex="1" parent="1">
          <mxGeometry x="220" y="50" width="620" height="620" as="geometry" />
        </mxCell>
        <mxCell id="WLdkaR_j6p1JXs1nKUVu-39" value="" style="verticalLabelPosition=bottom;verticalAlign=top;html=1;shape=mxgraph.basic.pie;fillColor=#d5e8d4;strokeColor=#82b366;startAngle=0.75;endAngle=0;labelBackgroundColor=none;opacity=50;rotation=-180;" vertex="1" parent="1">
          <mxGeometry x="220" y="50" width="620" height="620" as="geometry" />
        </mxCell>
      </root>
    </mxGraphModel>
  </diagram>
</mxfile>
